<svg width="20" height="20" viewBox="0 0 20 20" fill="none" xmlns="http://www.w3.org/2000/svg">
	<g clip-path="url(#clip0_247_790)">
		<path
			d="M17.8109 13.9002C17.3797 14.858 17.1719 15.2861 16.6172 16.1315C15.8406 17.3127 14.7453 18.7877 13.3922 18.7971C12.1875 18.808 11.8766 18.0111 10.2406 18.0252C8.60625 18.033 8.26563 18.8127 7.05938 18.8002C5.70469 18.7877 4.66875 17.4596 3.89219 16.2799C1.72031 12.9721 1.49063 9.09396 2.83281 7.03146C3.78281 5.56896 5.28438 4.70958 6.69531 4.70958C8.13281 4.70958 9.03594 5.49865 10.2234 5.49865C11.3766 5.49865 12.0781 4.70802 13.7406 4.70802C14.9969 4.70802 16.325 5.3924 17.275 6.57365C14.1688 8.27677 14.6734 12.7127 17.8109 13.9002V13.9002ZM12.4781 3.38771C13.0828 2.61114 13.5422 1.51583 13.375 0.400208C12.3891 0.467395 11.2359 1.09708 10.5625 1.91271C9.95157 2.65646 9.44532 3.75958 9.64219 4.82677C10.7188 4.86115 11.8328 4.21896 12.4781 3.38771H12.4781Z"
			fill="white" />
	</g>
	<defs>
		<clipPath id="clip0_247_790">
			<rect width="20" height="20" fill="white" />
		</clipPath>
	</defs>
</svg>
