<svg width="20" height="20" viewBox="0 0 20 20" fill="none" xmlns="http://www.w3.org/2000/svg">
	<g clip-path="url(#clip0_247_797)">
		<path
			d="M2.85 0.800171L11.5125 9.40017L13.8875 7.02517L3.3875 0.962671C3.2125 0.861108 3.025 0.804858 2.85 0.800171ZM2.125 1.20017C2.04688 1.33923 2 1.5033 2 1.68767V18.4002C2 18.5345 2.02813 18.6549 2.075 18.7627L10.9375 9.96267L2.125 1.20017ZM14.6125 7.43767L12.075 9.96267L14.6125 12.4752L17.7125 10.7002C18.1531 10.4455 18.2156 10.122 18.2125 9.95017C18.2078 9.6658 18.0281 9.40017 17.725 9.23767C17.4609 9.09548 15.5 7.9533 14.6125 7.43767ZM11.5125 10.5252L2.775 19.1877C2.92031 19.1799 3.07813 19.1486 3.225 19.0627C3.56719 18.8642 10.4875 14.8627 10.4875 14.8627L13.9 12.9002L11.5125 10.5252Z"
			fill="white" />
	</g>
	<defs>
		<clipPath id="clip0_247_797">
			<rect width="20" height="20" fill="white" />
		</clipPath>
	</defs>
</svg>
